# xmcd
#
# Track frame offsets: 
#        150
#        13898
#        28550
#        42222
#        61477
#        72758
#        86543
#        99028
#        111783
#        123758
#        136323
#        151477
#        165717
#        178206
#        191109
#        205418
#        219374
#        232929
#        244655
#        257534
#        270765
#        285524
#        300143
#        314831
#
# Disc length: 4369 seconds
#
# Revision: 1
# Processed by: cddbd v1.5.2PL0 Copyright (c) Steve Scherf et al.
# Submitted via: ExactAudioCopyFreeDBPlugin 1.0
#
DISCID=41110f18
DTITLE=Various Artist - The History Of Rhythm And Blues 1925-1942
DYEAR=2008
DGENRE=Blues
TTITLE0=Albert Ammons And His Rhythm Kings - Boogie Woogie Stomp
TTITLE1=Count Basie as Jones-Smith Inc. - Boogie Woogie
TTITLE2=Count Basie - One-o-Clock Jump
TTITLE3=Benny Goodman - Sing Sing Sing
TTITLE4=Louis Jordan's Elks Rendezvoud Band - Keep-a-Knockin'
TTITLE5=Jimmie Lunceford And His Orchestra - T'Ain't What You Do
TTITLE6=Cab Calloway - Jumpin' Jive
TTITLE7=Nat Cole Trio - I Like To Riff
TTITLE8=Three Sharps And A Flat - That's The Rhythm
TTITLE9=The Cats And The Fiddle - I'd Rather Drink Muddy Water
TTITLE10=Erskine Hawkins - After Hours
TTITLE11=Andy Kirk And His Clouds Of Joy - Floyd's Guitar Blues
TTITLE12=Peetie Wheatstraw - Gangsters Blues
TTITLE13=Big Joe Turner With Pete Johnson - Roll'em Pete
TTITLE14=Will Bradley - Down The Road A-Piece
TTITLE15=Lionel Hampton And His Orchestra - Central Avenue Breakdown
TTITLE16=Pete Johnson - Death Ray Boogie
TTITLE17=Lewis Bronzeville Five - Natchez Mississippi Blues
TTITLE18=Jay McShann - Confessin' The Blues
TTITLE19=Louis Jordan And His Tympany Five - What's The Use Of Getting
TTITLE19=Sober (When You Gonna Get Drunk Again)
TTITLE20=Andy Kirk And His Clouds Of Joy - Take It And Git
TTITLE21=Freddie Slack And His Orchestra With Ella Mae Morse - Cow Cow
TTITLE21=Boogie
TTITLE22=Lionel Hampton And His Orchestra - Flying Home
TTITLE23=T-Bone Walker - Mean Old World
EXTD=
EXTT0=
EXTT1=
EXTT2=
EXTT3=
EXTT4=
EXTT5=
EXTT6=
EXTT7=
EXTT8=
EXTT9=
EXTT10=
EXTT11=
EXTT12=
EXTT13=
EXTT14=
EXTT15=
EXTT16=
EXTT17=
EXTT18=
EXTT19=
EXTT20=
EXTT21=
EXTT22=
EXTT23=
PLAYORDER=
